<?xml version="1.0" encoding="utf-8" standalone="no"?>
<!DOCTYPE svg PUBLIC "-//W3C//DTD SVG 1.1//EN"
  "http://www.w3.org/Graphics/SVG/1.1/DTD/svg11.dtd">
<!-- Created with matplotlib (https://matplotlib.org/) -->
<svg height="288pt" version="1.1" viewBox="0 0 576 288" width="576pt" xmlns="http://www.w3.org/2000/svg" xmlns:xlink="http://www.w3.org/1999/xlink">
 <metadata>
  <rdf:RDF xmlns:cc="http://creativecommons.org/ns#" xmlns:dc="http://purl.org/dc/elements/1.1/" xmlns:rdf="http://www.w3.org/1999/02/22-rdf-syntax-ns#">
   <cc:Work>
    <dc:type rdf:resource="http://purl.org/dc/dcmitype/StillImage"/>
    <dc:date>2022-08-19T14:04:25.106337</dc:date>
    <dc:format>image/svg+xml</dc:format>
    <dc:creator>
     <cc:Agent>
      <dc:title>Matplotlib v3.3.4, https://matplotlib.org/</dc:title>
     </cc:Agent>
    </dc:creator>
   </cc:Work>
  </rdf:RDF>
 </metadata>
 <defs>
  <style type="text/css">*{stroke-linecap:butt;stroke-linejoin:round;}</style>
 </defs>
 <g id="figure_1">
  <g id="patch_1">
   <path d="M 0 288 
L 576 288 
L 576 0 
L 0 0 
z
" style="fill:#ffffff;"/>
  </g>
  <g id="axes_1">
   <g id="patch_2">
    <path clip-path="url(#p188cfee265)" d="M 341.640502 269.187097 
L 369.497018 269.187097 
L 397.353534 269.187097 
L 397.353534 269.187097 
L 397.353534 261.388442 
L 397.353534 253.589787 
L 397.353534 253.589787 
L 403.775216 253.589787 
L 410.196898 253.589787 
L 410.196898 253.589787 
L 410.337043 252.907937 
L 410.473859 252.22541 
L 410.60734 251.542224 
L 410.737485 250.858394 
L 410.86429 250.173937 
L 410.987752 249.488869 
L 411.107869 248.803207 
L 411.224636 248.116966 
L 411.338052 247.430164 
L 411.448114 246.742816 
L 411.554819 246.054939 
L 411.658165 245.366549 
L 411.758148 244.677663 
L 411.854768 243.988297 
L 411.948021 243.298467 
L 412.037905 242.608191 
L 412.124419 241.917484 
L 412.207559 241.226363 
L 412.287324 240.534844 
L 412.363713 239.842944 
L 412.436723 239.150679 
L 412.506353 238.458066 
L 412.5726 237.765122 
L 412.635464 237.071862 
L 412.694943 236.378304 
L 412.751035 235.684463 
L 412.80374 234.990357 
L 412.853055 234.296002 
L 412.89898 233.601415 
L 412.941513 232.906612 
L 412.980654 232.211609 
L 413.016402 231.516423 
L 413.048755 230.821072 
L 413.077714 230.12557 
L 413.103277 229.429936 
L 413.125443 228.734185 
L 413.144213 228.038334 
L 413.159585 227.342399 
L 413.17156 226.646398 
L 413.180137 225.950347 
L 413.185316 225.254262 
L 413.187097 224.558161 
L 413.185479 223.862058 
L 413.180463 223.165972 
L 413.172049 222.469919 
L 413.160237 221.773915 
L 413.145028 221.077978 
L 413.126421 220.382122 
L 413.104417 219.686366 
L 413.079017 218.990726 
L 413.050221 218.295217 
L 413.018031 217.599858 
L 412.982446 216.904664 
L 412.943467 216.209652 
L 412.901097 215.514839 
L 412.855334 214.820241 
L 412.806182 214.125874 
L 412.75364 213.431756 
L 412.69771 212.737902 
L 412.638394 212.04433 
L 412.575692 211.351056 
L 412.509607 210.658096 
L 412.440139 209.965467 
L 412.367291 209.273185 
L 412.291064 208.581267 
L 412.211461 207.88973 
L 412.128482 207.198589 
L 412.042131 206.507862 
L 411.952408 205.817564 
L 411.859316 205.127713 
L 411.762858 204.438324 
L 411.663036 203.749415 
L 411.559851 203.061001 
L 411.453307 202.373099 
L 411.343406 201.685725 
L 411.230151 200.998896 
L 411.113544 200.312628 
L 410.993589 199.626937 
L 410.870287 198.941841 
L 410.743642 198.257354 
L 410.613657 197.573494 
L 410.480335 196.890276 
L 410.34368 196.207718 
L 410.203694 195.525835 
L 410.060381 194.844643 
L 409.913744 194.164159 
L 409.763786 193.484399 
L 409.610512 192.805379 
L 409.453925 192.127116 
L 409.294029 191.449625 
L 409.130827 190.772922 
L 408.964324 190.097025 
L 408.794523 189.421948 
L 408.621428 188.747709 
L 408.445044 188.074322 
L 408.265375 187.401805 
L 408.082424 186.730172 
L 407.896197 186.059441 
L 407.706698 185.389627 
L 407.513931 184.720746 
L 407.513931 184.720746 
L 407.286154 184.815871 
L 407.0569 184.907382 
L 406.826228 184.995256 
L 406.594195 185.079471 
L 406.360859 185.160005 
L 406.126279 185.236839 
L 405.890513 185.309954 
L 405.65362 185.37933 
L 405.415659 185.444952 
L 405.17669 185.506801 
L 404.936774 185.564864 
L 404.695968 185.619125 
L 404.454335 185.66957 
L 404.211934 185.716188 
L 403.968826 185.758966 
L 403.725072 185.797894 
L 403.480733 185.832962 
L 403.23587 185.864162 
L 402.990544 185.891484 
L 402.744816 185.914924 
L 402.498749 185.934474 
L 402.252403 185.95013 
L 402.00584 185.961888 
L 401.759122 185.969746 
L 401.512311 185.9737 
L 401.265468 185.97375 
L 401.018655 185.969896 
L 400.771934 185.96214 
L 400.525367 185.950482 
L 400.279014 185.934926 
L 400.032939 185.915476 
L 399.787202 185.892137 
L 399.541865 185.864914 
L 399.296989 185.833814 
L 399.052635 185.798846 
L 398.808865 185.760017 
L 398.56574 185.717338 
L 398.32332 185.670818 
L 398.081666 185.620471 
L 397.840839 185.566308 
L 397.600899 185.508344 
L 397.361905 185.446591 
L 397.123917 185.381067 
L 396.886996 185.311787 
L 396.6512 185.238768 
L 396.416588 185.16203 
L 396.18322 185.081591 
L 395.951153 184.99747 
L 395.720445 184.90969 
L 395.491154 184.818273 
L 395.263338 184.72324 
L 395.037053 184.624616 
L 394.812356 184.522426 
L 394.589304 184.416695 
L 394.367952 184.30745 
L 394.148355 184.194717 
L 393.930569 184.078525 
L 393.714647 183.958904 
L 393.500644 183.835883 
L 393.288614 183.709492 
L 393.078609 183.579764 
L 392.870682 183.446731 
L 392.664885 183.310426 
L 392.46127 183.170883 
L 392.259887 183.028137 
L 392.060787 182.882225 
L 391.864019 182.733181 
L 391.669633 182.581045 
L 391.477678 182.425853 
L 391.288201 182.267645 
L 391.101249 182.106459 
L 390.916871 181.942338 
L 390.735111 181.77532 
L 390.556015 181.605449 
L 390.379629 181.432767 
L 390.205995 181.257317 
L 390.035158 181.079142 
L 389.86716 180.898288 
L 389.702044 180.7148 
L 389.53985 180.528723 
L 389.380619 180.340104 
L 389.224392 180.148991 
L 389.071206 179.955431 
L 388.921101 179.759472 
L 388.774114 179.561164 
L 388.630281 179.360555 
L 388.489639 179.157698 
L 388.352223 178.952641 
L 388.218068 178.745436 
L 388.087206 178.536136 
L 387.959671 178.324792 
L 387.835494 178.111458 
L 387.714706 177.896187 
L 387.597339 177.679032 
L 387.48342 177.460048 
L 387.372979 177.239289 
L 387.266043 177.016812 
L 387.16264 176.792671 
L 387.062794 176.566923 
L 386.966531 176.339624 
L 386.966531 176.339624 
L 386.873874 176.110831 
L 386.784848 175.880602 
L 386.699474 175.648993 
L 386.617774 175.416062 
L 386.539768 175.181869 
L 386.465475 174.946471 
L 386.394915 174.709928 
L 386.328105 174.472299 
L 386.265061 174.233642 
L 386.205799 173.994019 
L 386.150335 173.753488 
L 386.098682 173.51211 
L 386.050852 173.269945 
L 386.006859 173.027054 
L 385.966712 172.783498 
L 385.930423 172.539337 
L 385.898 172.294633 
L 385.86945 172.049446 
L 385.844782 171.803839 
L 385.824002 171.557872 
L 385.807114 171.311608 
L 385.794123 171.065107 
L 385.785032 170.818432 
L 385.779844 170.571643 
L 385.77856 170.324804 
L 385.781179 170.077975 
L 385.787702 169.831218 
L 385.798126 169.584595 
L 385.81245 169.338168 
L 385.830669 169.091999 
L 385.85278 168.846148 
L 385.878775 168.600678 
L 385.90865 168.355649 
L 385.942396 168.111124 
L 385.980006 167.867163 
L 386.021469 167.623828 
L 386.066775 167.381178 
L 386.115913 167.139275 
L 386.168871 166.89818 
L 386.225635 166.657953 
L 386.286192 166.418653 
L 386.350525 166.180341 
L 386.41862 165.943076 
L 386.490458 165.706918 
L 386.566022 165.471926 
L 386.645294 165.238158 
L 386.728252 165.005673 
L 386.814878 164.774529 
L 386.905148 164.544784 
L 386.99904 164.316495 
L 387.096531 164.08972 
L 387.197596 163.864515 
L 387.30221 163.640937 
L 387.410348 163.419041 
L 387.521981 163.198884 
L 387.637082 162.980519 
L 387.755622 162.764002 
L 387.877572 162.549387 
L 388.002901 162.336727 
L 388.131577 162.126076 
L 388.263569 161.917486 
L 388.398843 161.711011 
L 388.537366 161.5067 
L 388.679102 161.304606 
L 388.824018 161.104778 
L 388.972075 160.907268 
L 389.123238 160.712123 
L 389.277468 160.519394 
L 389.434727 160.329129 
L 389.594975 160.141374 
L 389.758173 159.956177 
L 389.924279 159.773584 
L 390.093252 159.593641 
L 390.265051 159.416393 
L 390.43963 159.241884 
L 390.616948 159.070158 
L 390.79696 158.901258 
L 390.97962 158.735226 
L 391.164884 158.572104 
L 391.352704 158.411932 
L 391.543034 158.254751 
L 391.735826 158.100599 
L 391.931031 157.949516 
L 392.128602 157.801539 
L 392.328488 157.656705 
L 392.530641 157.515051 
L 392.735008 157.376611 
L 392.941539 157.241421 
L 393.150182 157.109514 
L 393.360885 156.980924 
L 393.573596 156.855682 
L 393.788261 156.733819 
L 394.004826 156.615367 
L 394.223238 156.500355 
L 394.443441 156.388812 
L 394.665381 156.280765 
L 394.889002 156.176241 
L 395.114247 156.075268 
L 395.341062 155.977869 
L 395.569389 155.88407 
L 395.569389 155.88407 
L 395.232725 155.274793 
L 394.893092 154.667167 
L 394.550495 154.061206 
L 394.204945 153.456925 
L 393.856449 152.854337 
L 393.505015 152.253459 
L 393.150652 151.654303 
L 392.793368 151.056884 
L 392.433172 150.461217 
L 392.070072 149.867315 
L 391.704078 149.275193 
L 391.335197 148.684864 
L 390.963438 148.096344 
L 390.588811 147.509645 
L 390.211324 146.924782 
L 389.830987 146.341769 
L 389.447808 145.76062 
L 389.061796 145.181348 
L 388.672961 144.603967 
L 388.281312 144.028492 
L 387.886858 143.454936 
L 387.489609 142.883312 
L 387.089574 142.313634 
L 386.686763 141.745915 
L 386.281185 141.18017 
L 385.87285 140.616412 
L 385.461768 140.054654 
L 385.047948 139.494909 
L 384.631401 138.937192 
L 384.212136 138.381514 
L 383.790163 137.82789 
L 383.365492 137.276332 
L 382.938134 136.726854 
L 382.508099 136.179469 
L 382.075396 135.63419 
L 381.640037 135.09103 
L 381.202031 134.550002 
L 380.761389 134.011118 
L 380.318122 133.474392 
L 379.872239 132.939836 
L 379.423753 132.407464 
L 378.972673 131.877287 
L 378.51901 131.349318 
L 378.062774 130.823571 
L 377.603978 130.300057 
L 377.142632 129.778789 
L 376.678746 129.259779 
L 376.212332 128.743041 
L 375.743401 128.228585 
L 375.271964 127.716425 
L 374.798032 127.206572 
L 374.321617 126.69904 
L 373.84273 126.193838 
L 373.361383 125.690981 
L 372.877586 125.19048 
L 372.391352 124.692346 
L 371.902691 124.196593 
L 371.411617 123.70323 
L 370.918139 123.212271 
L 370.422271 122.723727 
L 369.924024 122.237609 
L 369.423409 121.753929 
L 368.920439 121.2727 
L 368.415126 120.793931 
L 367.907482 120.317635 
L 367.397518 119.843822 
L 366.885248 119.372505 
L 366.370682 118.903695 
L 365.853835 118.437402 
L 365.334717 117.973638 
L 364.813341 117.512413 
L 364.289719 117.053739 
L 363.763865 116.597627 
L 363.23579 116.144088 
L 362.705508 115.693132 
L 362.17303 115.24477 
L 361.63837 114.799013 
L 361.10154 114.355871 
L 360.562554 113.915356 
L 360.021423 113.477476 
L 359.478161 113.042244 
L 358.93278 112.609669 
L 358.385295 112.179762 
L 357.835717 111.752532 
L 357.28406 111.327991 
L 356.730337 110.906148 
L 356.174561 110.487013 
L 355.616746 110.070596 
L 355.056904 109.656907 
L 354.49505 109.245956 
L 353.931196 108.837753 
L 353.365356 108.432308 
L 352.797544 108.02963 
L 352.227772 107.629728 
L 351.656055 107.232613 
L 351.082406 106.838293 
L 350.506839 106.446779 
L 349.929368 106.058079 
L 349.350006 105.672203 
L 348.768767 105.28916 
L 348.768767 105.28916 
L 344.227952 109.829975 
L 339.687137 114.37079 
L 339.687137 114.37079 
L 328.658173 103.341827 
L 317.62921 92.312863 
L 317.62921 92.312863 
L 322.170025 87.772048 
L 326.71084 83.231233 
L 326.71084 83.231233 
L 326.327797 82.649994 
L 325.941921 82.070632 
L 325.553221 81.493161 
L 325.161707 80.917594 
L 324.767387 80.343945 
L 324.370272 79.772228 
L 323.97037 79.202456 
L 323.567692 78.634644 
L 323.162247 78.068804 
L 322.754044 77.50495 
L 322.343093 76.943096 
L 321.929404 76.383254 
L 321.512987 75.825439 
L 321.093852 75.269663 
L 320.672009 74.71594 
L 320.247468 74.164283 
L 319.820238 73.614705 
L 319.390331 73.06722 
L 318.957756 72.521839 
L 318.522524 71.978577 
L 318.084644 71.437446 
L 317.644129 70.89846 
L 317.200987 70.36163 
L 316.75523 69.82697 
L 316.306868 69.294492 
L 315.855912 68.76421 
L 315.402373 68.236135 
L 314.946261 67.710281 
L 314.487587 67.186659 
L 314.026362 66.665283 
L 313.562598 66.146165 
L 313.096305 65.629318 
L 312.627495 65.114752 
L 312.156178 64.602482 
L 311.682365 64.092518 
L 311.206069 63.584874 
L 310.7273 63.079561 
L 310.246071 62.576591 
L 309.762391 62.075976 
L 309.276273 61.577729 
L 308.787729 61.081861 
L 308.29677 60.588383 
L 307.803407 60.097309 
L 307.307654 59.608648 
L 306.80952 59.122414 
L 306.309019 58.638617 
L 305.806162 58.15727 
L 305.30096 57.678383 
L 304.793428 57.201968 
L 304.283575 56.728036 
L 303.771415 56.256599 
L 303.256959 55.787668 
L 302.740221 55.321254 
L 302.221211 54.857368 
L 301.699943 54.396022 
L 301.176429 53.937226 
L 300.650682 53.48099 
L 300.122713 53.027327 
L 299.592536 52.576247 
L 299.060164 52.127761 
L 298.525608 51.681878 
L 297.988882 51.238611 
L 297.449998 50.797969 
L 296.90897 50.359963 
L 296.36581 49.924604 
L 295.820531 49.491901 
L 295.273146 49.061866 
L 294.723668 48.634508 
L 294.17211 48.209837 
L 293.618486 47.787864 
L 293.062808 47.368599 
L 292.505091 46.952052 
L 291.945346 46.538232 
L 291.383588 46.12715 
L 290.81983 45.718815 
L 290.254085 45.313237 
L 289.686366 44.910426 
L 289.116688 44.510391 
L 288.545064 44.113142 
L 287.971508 43.718688 
L 287.396033 43.327039 
L 286.818652 42.938204 
L 286.23938 42.552192 
L 285.658231 42.169013 
L 285.075218 41.788676 
L 284.490355 41.411189 
L 283.903656 41.036562 
L 283.315136 40.664803 
L 282.724807 40.295922 
L 282.132685 39.929928 
L 281.538783 39.566828 
L 280.943116 39.206632 
L 280.345697 38.849348 
L 279.746541 38.494985 
L 279.145663 38.143551 
L 278.543075 37.795055 
L 277.938794 37.449505 
L 277.332833 37.106908 
L 276.725207 36.767275 
L 276.11593 36.430611 
L 276.11593 36.430611 
L 276.022131 36.658938 
L 275.924732 36.885753 
L 275.823759 37.110998 
L 275.719235 37.334619 
L 275.611188 37.556559 
L 275.499645 37.776762 
L 275.384633 37.995174 
L 275.266181 38.211739 
L 275.144318 38.426404 
L 275.019076 38.639115 
L 274.890486 38.849818 
L 274.758579 39.058461 
L 274.623389 39.264992 
L 274.484949 39.469359 
L 274.343295 39.671512 
L 274.198461 39.871398 
L 274.050484 40.068969 
L 273.899401 40.264174 
L 273.745249 40.456966 
L 273.588068 40.647296 
L 273.427896 40.835116 
L 273.264774 41.02038 
L 273.098742 41.20304 
L 272.929842 41.383052 
L 272.758116 41.56037 
L 272.583607 41.734949 
L 272.406359 41.906748 
L 272.226416 42.075721 
L 272.043823 42.241827 
L 271.858626 42.405025 
L 271.670871 42.565273 
L 271.480606 42.722532 
L 271.287877 42.876762 
L 271.092732 43.027925 
L 270.895222 43.175982 
L 270.695394 43.320898 
L 270.4933 43.462634 
L 270.288989 43.601157 
L 270.082514 43.736431 
L 269.873924 43.868423 
L 269.663273 43.997099 
L 269.450613 44.122428 
L 269.235998 44.244378 
L 269.019481 44.362918 
L 268.801116 44.478019 
L 268.580959 44.589652 
L 268.359063 44.69779 
L 268.135485 44.802404 
L 267.91028 44.903469 
L 267.683505 45.00096 
L 267.455216 45.094852 
L 267.225471 45.185122 
L 266.994327 45.271748 
L 266.761842 45.354706 
L 266.528074 45.433978 
L 266.293082 45.509542 
L 266.056924 45.58138 
L 265.819659 45.649475 
L 265.581347 45.713808 
L 265.342047 45.774365 
L 265.10182 45.831129 
L 264.860725 45.884087 
L 264.618822 45.933225 
L 264.376172 45.978531 
L 264.132837 46.019994 
L 263.888876 46.057604 
L 263.644351 46.09135 
L 263.399322 46.121225 
L 263.153852 46.14722 
L 262.908001 46.169331 
L 262.661832 46.18755 
L 262.415405 46.201874 
L 262.168782 46.212298 
L 261.922025 46.218821 
L 261.675196 46.22144 
L 261.428357 46.220156 
L 261.181568 46.214968 
L 260.934893 46.205877 
L 260.688392 46.192886 
L 260.442128 46.175998 
L 260.196161 46.155218 
L 259.950554 46.13055 
L 259.705367 46.102 
L 259.460663 46.069577 
L 259.216502 46.033288 
L 258.972946 45.993141 
L 258.730055 45.949148 
L 258.48789 45.901318 
L 258.246512 45.849665 
L 258.005981 45.794201 
L 257.766358 45.734939 
L 257.527701 45.671895 
L 257.290072 45.605085 
L 257.053529 45.534525 
L 256.818131 45.460232 
L 256.583938 45.382226 
L 256.351007 45.300526 
L 256.119398 45.215152 
L 255.889169 45.126126 
L 255.660376 45.033469 
L 255.660376 45.033469 
L 255.433077 44.937206 
L 255.207329 44.83736 
L 254.983188 44.733957 
L 254.760711 44.627021 
L 254.539952 44.51658 
L 254.320968 44.402661 
L 254.103813 44.285294 
L 253.888542 44.164506 
L 253.675208 44.040329 
L 253.463864 43.912794 
L 253.254564 43.781932 
L 253.047359 43.647777 
L 252.842302 43.510361 
L 252.639445 43.369719 
L 252.438836 43.225886 
L 252.240528 43.078899 
L 252.044569 42.928794 
L 251.851009 42.775608 
L 251.659896 42.619381 
L 251.471277 42.46015 
L 251.2852 42.297956 
L 251.101712 42.13284 
L 250.920858 41.964842 
L 250.742683 41.794005 
L 250.567233 41.620371 
L 250.394551 41.443985 
L 250.22468 41.264889 
L 250.057662 41.083129 
L 249.893541 40.898751 
L 249.732355 40.711799 
L 249.574147 40.522322 
L 249.418955 40.330367 
L 249.266819 40.135981 
L 249.117775 39.939213 
L 248.971863 39.740113 
L 248.829117 39.53873 
L 248.689574 39.335115 
L 248.553269 39.129318 
L 248.420236 38.921391 
L 248.290508 38.711386 
L 248.164117 38.499356 
L 248.041096 38.285353 
L 247.921475 38.069431 
L 247.805283 37.851645 
L 247.69255 37.632048 
L 247.583305 37.410696 
L 247.477574 37.187644 
L 247.375384 36.962947 
L 247.27676 36.736662 
L 247.181727 36.508846 
L 247.09031 36.279555 
L 247.00253 36.048847 
L 246.918409 35.81678 
L 246.83797 35.583412 
L 246.761232 35.3488 
L 246.688213 35.113004 
L 246.618933 34.876083 
L 246.553409 34.638095 
L 246.491656 34.399101 
L 246.433692 34.159161 
L 246.379529 33.918334 
L 246.329182 33.67668 
L 246.282662 33.43426 
L 246.239983 33.191135 
L 246.201154 32.947365 
L 246.166186 32.703011 
L 246.135086 32.458135 
L 246.107863 32.212798 
L 246.084524 31.967061 
L 246.065074 31.720986 
L 246.049518 31.474633 
L 246.03786 31.228066 
L 246.030104 30.981345 
L 246.02625 30.734532 
L 246.0263 30.487689 
L 246.030254 30.240878 
L 246.038112 29.99416 
L 246.04987 29.747597 
L 246.065526 29.501251 
L 246.085076 29.255184 
L 246.108516 29.009456 
L 246.135838 28.76413 
L 246.167038 28.519267 
L 246.202106 28.274928 
L 246.241034 28.031174 
L 246.283812 27.788066 
L 246.33043 27.545665 
L 246.380875 27.304032 
L 246.435136 27.063226 
L 246.493199 26.82331 
L 246.555048 26.584341 
L 246.62067 26.34638 
L 246.690046 26.109487 
L 246.763161 25.873721 
L 246.839995 25.639141 
L 246.920529 25.405805 
L 247.004744 25.173772 
L 247.092618 24.9431 
L 247.184129 24.713846 
L 247.279254 24.486069 
L 247.279254 24.486069 
L 246.610373 24.293302 
L 245.940559 24.103803 
L 245.269828 23.917576 
L 244.598195 23.734625 
L 243.925678 23.554956 
L 243.252291 23.378572 
L 242.578052 23.205477 
L 241.902975 23.035676 
L 241.227078 22.869173 
L 240.550375 22.705971 
L 239.872884 22.546075 
L 239.194621 22.389488 
L 238.515601 22.236214 
L 237.835841 22.086256 
L 237.155357 21.939619 
L 236.474165 21.796306 
L 235.792282 21.65632 
L 235.109724 21.519665 
L 234.426506 21.386343 
L 233.742646 21.256358 
L 233.058159 21.129713 
L 232.373063 21.006411 
L 231.687372 20.886456 
L 231.001104 20.769849 
L 230.314275 20.656594 
L 229.626901 20.546693 
L 228.938999 20.440149 
L 228.250585 20.336964 
L 227.561676 20.237142 
L 226.872287 20.140684 
L 226.182436 20.047592 
L 225.492138 19.957869 
L 224.801411 19.871518 
L 224.11027 19.788539 
L 223.418733 19.708936 
L 222.726815 19.632709 
L 222.034533 19.559861 
L 221.341904 19.490393 
L 220.648944 19.424308 
L 219.95567 19.361606 
L 219.262098 19.30229 
L 218.568244 19.24636 
L 217.874126 19.193818 
L 217.179759 19.144666 
L 216.485161 19.098903 
L 215.790348 19.056533 
L 215.095336 19.017554 
L 214.400142 18.981969 
L 213.704783 18.949779 
L 213.009274 18.920983 
L 212.313634 18.895583 
L 211.617878 18.873579 
L 210.922022 18.854972 
L 210.226085 18.839763 
L 209.530081 18.827951 
L 208.834028 18.819537 
L 208.137942 18.814521 
L 207.441839 18.812903 
L 206.745738 18.814684 
L 206.049653 18.819863 
L 205.353602 18.82844 
L 204.657601 18.840415 
L 203.961666 18.855787 
L 203.265815 18.874557 
L 202.570064 18.896723 
L 201.87443 18.922286 
L 201.178928 18.951245 
L 200.483577 18.983598 
L 199.788391 19.019346 
L 199.093388 19.058487 
L 198.398585 19.10102 
L 197.703998 19.146945 
L 197.009643 19.19626 
L 196.315537 19.248965 
L 195.621696 19.305057 
L 194.928138 19.364536 
L 194.234878 19.4274 
L 193.541934 19.493647 
L 192.849321 19.563277 
L 192.157056 19.636287 
L 191.465156 19.712676 
L 190.773637 19.792441 
L 190.082516 19.875581 
L 189.391809 19.962095 
L 188.701533 20.051979 
L 188.011703 20.145232 
L 187.322337 20.241852 
L 186.633451 20.341835 
L 185.945061 20.445181 
L 185.257184 20.551886 
L 184.569836 20.661948 
L 183.883034 20.775364 
L 183.196793 20.892131 
L 182.511131 21.012248 
L 181.826063 21.13571 
L 181.141606 21.262515 
L 180.457776 21.39266 
L 179.77459 21.526141 
L 179.092063 21.662957 
L 178.410213 21.803102 
L 178.410213 21.803102 
L 178.410213 28.224784 
L 178.410213 34.646466 
L 178.410213 34.646466 
L 170.611558 34.646466 
L 162.812903 34.646466 
L 162.812903 34.646466 
L 162.812903 62.502982 
L 162.812903 90.359498 
L 162.812903 90.359498 
L 165.621805 90.38156 
L 168.430014 90.447739 
L 171.236837 90.558019 
L 174.041581 90.712373 
L 176.843555 90.910764 
L 179.642067 91.153141 
L 182.436427 91.439446 
L 185.225944 91.769607 
L 188.009932 92.143543 
L 190.787703 92.561163 
L 193.558571 93.022362 
L 196.321854 93.527026 
L 199.076868 94.075033 
L 201.822935 94.666246 
L 204.559377 95.300519 
L 207.285519 95.977696 
L 210.000687 96.69761 
L 212.704213 97.460083 
L 215.395429 98.264927 
L 218.07367 99.111944 
L 220.738277 100.000924 
L 223.388592 100.931648 
L 226.023961 101.903887 
L 228.643733 102.9174 
L 231.247262 103.971938 
L 233.833907 105.067241 
L 236.403028 106.203037 
L 238.953992 107.379048 
L 241.486169 108.594982 
L 243.998934 109.85054 
L 246.491668 111.145411 
L 248.963756 112.479277 
L 251.414587 113.851809 
L 253.843557 115.262667 
L 256.250067 116.711504 
L 258.633522 118.197961 
L 260.993335 119.721673 
L 263.328924 121.282264 
L 265.639712 122.879347 
L 267.925128 124.51253 
L 270.18461 126.18141 
L 272.4176 127.885573 
L 274.623546 129.624601 
L 276.801905 131.398064 
L 278.952138 133.205524 
L 281.073716 135.046535 
L 283.166115 136.920644 
L 285.228818 138.827388 
L 287.261318 140.766295 
L 289.263111 142.736889 
L 291.233705 144.738682 
L 293.172612 146.771182 
L 295.079356 148.833885 
L 296.953465 150.926284 
L 298.794476 153.047862 
L 300.601936 155.198095 
L 302.375399 157.376454 
L 304.114427 159.5824 
L 305.81859 161.81539 
L 307.48747 164.074872 
L 309.120653 166.360288 
L 310.717736 168.671076 
L 312.278327 171.006665 
L 313.802039 173.366478 
L 315.288496 175.749933 
L 316.737333 178.156443 
L 318.148191 180.585413 
L 319.520723 183.036244 
L 320.854589 185.508332 
L 322.14946 188.001066 
L 323.405018 190.513831 
L 324.620952 193.046008 
L 325.796963 195.596972 
L 326.932759 198.166093 
L 328.028062 200.752738 
L 329.0826 203.356267 
L 330.096113 205.976039 
L 331.068352 208.611408 
L 331.999076 211.261723 
L 332.888056 213.92633 
L 333.735073 216.604571 
L 334.539917 219.295787 
L 335.30239 221.999313 
L 336.022304 224.714481 
L 336.699481 227.440623 
L 337.333754 230.177065 
L 337.924967 232.923132 
L 338.472974 235.678146 
L 338.977638 238.441429 
L 339.438837 241.212297 
L 339.856457 243.990068 
L 340.230393 246.774056 
L 340.560554 249.563573 
L 340.846859 252.357933 
L 341.089236 255.156445 
L 341.287627 257.958419 
L 341.441981 260.763163 
L 341.552261 263.569986 
L 341.61844 266.378195 
z
" style="fill:#008000;stroke:#000000;stroke-linejoin:miter;"/>
   </g>
   <g id="patch_3">
    <path clip-path="url(#p188cfee265)" d="M 406.472486 246.558876 
L 397.201913 246.558876 
L 387.93134 246.558876 
L 387.93134 246.558876 
L 387.379242 245.673025 
L 386.827145 244.787174 
L 386.827145 244.787174 
L 394.371523 240.085218 
L 401.9159 235.383262 
L 401.9159 235.383262 
L 403.95727 238.658679 
L 405.99864 241.934096 
L 405.99864 241.934096 
L 406.003814 241.980298 
L 406.008978 242.026501 
L 406.014134 242.072705 
L 406.019281 242.11891 
L 406.024419 242.165116 
L 406.029548 242.211322 
L 406.034669 242.25753 
L 406.039781 242.303739 
L 406.044884 242.349948 
L 406.049978 242.396159 
L 406.055063 242.442371 
L 406.06014 242.488583 
L 406.065208 242.534797 
L 406.070267 242.581011 
L 406.075317 242.627227 
L 406.080359 242.673443 
L 406.085392 242.719661 
L 406.090416 242.765879 
L 406.095431 242.812098 
L 406.100437 242.858319 
L 406.105435 242.90454 
L 406.110424 242.950762 
L 406.115404 242.996985 
L 406.120375 243.043209 
L 406.125338 243.089434 
L 406.130292 243.13566 
L 406.135237 243.181887 
L 406.140173 243.228115 
L 406.1451 243.274344 
L 406.150019 243.320573 
L 406.154929 243.366804 
L 406.15983 243.413035 
L 406.164722 243.459268 
L 406.169605 243.505501 
L 406.17448 243.551736 
L 406.179346 243.597971 
L 406.184203 243.644207 
L 406.189051 243.690444 
L 406.193891 243.736682 
L 406.198722 243.782921 
L 406.203544 243.829161 
L 406.208357 243.875402 
L 406.213161 243.921643 
L 406.217957 243.967886 
L 406.222744 244.01413 
L 406.227522 244.060374 
L 406.232291 244.106619 
L 406.237052 244.152866 
L 406.241803 244.199113 
L 406.246546 244.245361 
L 406.251281 244.29161 
L 406.256006 244.337859 
L 406.260722 244.38411 
L 406.26543 244.430362 
L 406.270129 244.476614 
L 406.274819 244.522868 
L 406.279501 244.569122 
L 406.284173 244.615377 
L 406.288837 244.661633 
L 406.293492 244.70789 
L 406.298139 244.754148 
L 406.302776 244.800407 
L 406.307405 244.846667 
L 406.312025 244.892927 
L 406.316636 244.939188 
L 406.321238 244.985451 
L 406.325832 245.031714 
L 406.330416 245.077978 
L 406.334992 245.124243 
L 406.339559 245.170508 
L 406.344118 245.216775 
L 406.348667 245.263042 
L 406.353208 245.309311 
L 406.35774 245.35558 
L 406.362263 245.40185 
L 406.366778 245.448121 
L 406.371283 245.494393 
L 406.37578 245.540665 
L 406.380268 245.586939 
L 406.384748 245.633213 
L 406.389218 245.679488 
L 406.39368 245.725764 
L 406.398133 245.772041 
L 406.402577 245.818319 
L 406.407012 245.864597 
L 406.411439 245.910877 
L 406.415856 245.957157 
L 406.420265 246.003438 
L 406.424665 246.04972 
L 406.429057 246.096003 
L 406.433439 246.142286 
L 406.437813 246.188571 
L 406.442178 246.234856 
L 406.446534 246.281142 
L 406.450881 246.327429 
L 406.45522 246.373717 
L 406.45955 246.420005 
L 406.463871 246.466294 
L 406.468183 246.512585 
L 406.472486 246.558876 
z
" style="fill:#ffffff;stroke:#000000;stroke-linejoin:miter;"/>
   </g>
   <g id="patch_4">
    <path clip-path="url(#p188cfee265)" d="M 386.827145 244.787174 
L 385.45544 245.642075 
L 384.083735 246.496976 
L 384.083735 246.496976 
L 367.926104 220.571751 
L 351.768474 194.646526 
L 351.768474 194.646526 
L 353.140179 193.791625 
L 354.511884 192.936724 
L 354.511884 192.936724 
L 362.056262 188.234768 
L 369.600639 183.532812 
L 369.600639 183.532812 
L 385.75827 209.458037 
L 401.9159 235.383262 
L 401.9159 235.383262 
L 394.371523 240.085218 
z
" style="fill:#bfbfbf;stroke:#000000;stroke-linejoin:miter;"/>
   </g>
   <g id="patch_5">
    <path clip-path="url(#p188cfee265)" d="M 354.511884 192.936724 
L 353.730714 191.683323 
L 352.949545 190.429921 
L 352.949545 190.429921 
L 352.615627 188.991262 
L 352.281708 187.552603 
L 352.281708 187.552603 
L 360.941174 185.542708 
L 369.600639 183.532812 
L 369.600639 183.532812 
L 362.056262 188.234768 
z
" style="fill:#ffffff;stroke:#000000;stroke-linejoin:miter;"/>
   </g>
   <g id="patch_6">
    <path clip-path="url(#p188cfee265)" d="M 338.468243 128.038458 
L 336.893795 128.403894 
L 335.319347 128.769329 
L 335.319347 128.769329 
L 342.226079 158.526402 
L 349.132812 188.283474 
L 349.132812 188.283474 
L 350.70726 187.918039 
L 352.281708 187.552603 
L 352.281708 187.552603 
L 360.941174 185.542708 
L 369.600639 183.532812 
L 369.600639 183.532812 
L 362.693907 153.775739 
L 355.787175 124.018667 
L 355.787175 124.018667 
L 347.127709 126.028562 
z
" style="fill:#bfbfbf;stroke:#000000;stroke-linejoin:miter;"/>
   </g>
   <g id="patch_7">
    <path clip-path="url(#p188cfee265)" d="M 351.106815 112.894322 
L 344.55153 119.449607 
L 337.996245 126.004892 
L 337.996245 126.004892 
L 338.232244 127.021675 
L 338.468243 128.038458 
L 338.468243 128.038458 
L 347.127709 126.028562 
L 355.787175 124.018667 
L 355.787175 124.018667 
L 354.914572 120.259131 
L 354.041969 116.499594 
L 354.041969 116.499594 
L 354.012957 116.463267 
L 353.983938 116.426944 
L 353.954913 116.390628 
L 353.925881 116.354317 
L 353.896841 116.318011 
L 353.867795 116.281711 
L 353.838742 116.245416 
L 353.809682 116.209127 
L 353.780616 116.172844 
L 353.751542 116.136566 
L 353.722461 116.100293 
L 353.693374 116.064026 
L 353.664279 116.027765 
L 353.635178 115.991509 
L 353.60607 115.955258 
L 353.576955 115.919013 
L 353.547833 115.882774 
L 353.518704 115.84654 
L 353.489569 115.810312 
L 353.460426 115.774089 
L 353.431276 115.737872 
L 353.40212 115.70166 
L 353.372957 115.665454 
L 353.343787 115.629254 
L 353.31461 115.593059 
L 353.285426 115.556869 
L 353.256235 115.520685 
L 353.227038 115.484507 
L 353.197833 115.448334 
L 353.168622 115.412167 
L 353.139404 115.376005 
L 353.110179 115.339849 
L 353.080947 115.303698 
L 353.051708 115.267553 
L 353.022462 115.231413 
L 352.99321 115.195279 
L 352.96395 115.159151 
L 352.934684 115.123028 
L 352.905411 115.086911 
L 352.876131 115.050799 
L 352.846844 115.014693 
L 352.81755 114.978592 
L 352.78825 114.942497 
L 352.758942 114.906408 
L 352.729628 114.870324 
L 352.700307 114.834245 
L 352.670979 114.798173 
L 352.641644 114.762105 
L 352.612302 114.726044 
L 352.582954 114.689988 
L 352.553598 114.653937 
L 352.524236 114.617892 
L 352.494867 114.581853 
L 352.465491 114.545819 
L 352.436108 114.509791 
L 352.406719 114.473768 
L 352.377322 114.437751 
L 352.347919 114.40174 
L 352.318509 114.365734 
L 352.289092 114.329734 
L 352.259668 114.293739 
L 352.230237 114.25775 
L 352.2008 114.221767 
L 352.171355 114.185789 
L 352.141904 114.149817 
L 352.112446 114.11385 
L 352.082981 114.077889 
L 352.05351 114.041933 
L 352.024031 114.005984 
L 351.994546 113.970039 
L 351.965054 113.934101 
L 351.935555 113.898168 
L 351.906049 113.86224 
L 351.876536 113.826318 
L 351.847017 113.790402 
L 351.81749 113.754491 
L 351.787957 113.718586 
L 351.758417 113.682687 
L 351.728871 113.646793 
L 351.699317 113.610905 
L 351.669757 113.575022 
L 351.640189 113.539145 
L 351.610615 113.503274 
L 351.581035 113.467408 
L 351.551447 113.431548 
L 351.521852 113.395694 
L 351.492251 113.359845 
L 351.462643 113.324002 
L 351.433028 113.288164 
L 351.403407 113.252332 
L 351.373778 113.216506 
L 351.344143 113.180685 
L 351.314501 113.14487 
L 351.284852 113.10906 
L 351.255196 113.073256 
L 351.225533 113.037458 
L 351.195864 113.001666 
L 351.166188 112.965879 
L 351.136505 112.930098 
L 351.106815 112.894322 
z
" style="fill:#ffffff;stroke:#000000;stroke-linejoin:miter;"/>
   </g>
   <g id="patch_8">
    <path clip-path="url(#p188cfee265)" d="M 319.105678 80.893185 
L 312.550393 87.44847 
L 305.995108 94.003755 
L 305.995108 94.003755 
L 304.978325 93.767756 
L 303.961542 93.531757 
L 303.961542 93.531757 
L 305.971438 84.872291 
L 307.981333 76.212825 
L 307.981333 76.212825 
L 311.740869 77.085428 
L 315.500406 77.958031 
L 315.500406 77.958031 
L 315.536733 77.987043 
L 315.573056 78.016062 
L 315.609372 78.045087 
L 315.645683 78.074119 
L 315.681989 78.103159 
L 315.718289 78.132205 
L 315.754584 78.161258 
L 315.790873 78.190318 
L 315.827156 78.219384 
L 315.863434 78.248458 
L 315.899707 78.277539 
L 315.935974 78.306626 
L 315.972235 78.335721 
L 316.008491 78.364822 
L 316.044742 78.39393 
L 316.080987 78.423045 
L 316.117226 78.452167 
L 316.15346 78.481296 
L 316.189688 78.510431 
L 316.225911 78.539574 
L 316.262128 78.568724 
L 316.29834 78.59788 
L 316.334546 78.627043 
L 316.370746 78.656213 
L 316.406941 78.68539 
L 316.443131 78.714574 
L 316.479315 78.743765 
L 316.515493 78.772962 
L 316.551666 78.802167 
L 316.587833 78.831378 
L 316.623995 78.860596 
L 316.660151 78.889821 
L 316.696302 78.919053 
L 316.732447 78.948292 
L 316.768587 78.977538 
L 316.804721 79.00679 
L 316.840849 79.03605 
L 316.876972 79.065316 
L 316.913089 79.094589 
L 316.949201 79.123869 
L 316.985307 79.153156 
L 317.021408 79.18245 
L 317.057503 79.21175 
L 317.093592 79.241058 
L 317.129676 79.270372 
L 317.165755 79.299693 
L 317.201827 79.329021 
L 317.237895 79.358356 
L 317.273956 79.387698 
L 317.310012 79.417046 
L 317.346063 79.446402 
L 317.382108 79.475764 
L 317.418147 79.505133 
L 317.454181 79.534509 
L 317.490209 79.563892 
L 317.526232 79.593281 
L 317.562249 79.622678 
L 317.59826 79.652081 
L 317.634266 79.681491 
L 317.670266 79.710908 
L 317.706261 79.740332 
L 317.74225 79.769763 
L 317.778233 79.7992 
L 317.814211 79.828645 
L 317.850183 79.858096 
L 317.88615 79.887554 
L 317.922111 79.917019 
L 317.958067 79.94649 
L 317.994016 79.975969 
L 318.029961 80.005454 
L 318.065899 80.034946 
L 318.101832 80.064445 
L 318.13776 80.093951 
L 318.173682 80.123464 
L 318.209598 80.152983 
L 318.245509 80.18251 
L 318.281414 80.212043 
L 318.317313 80.241583 
L 318.353207 80.271129 
L 318.389095 80.300683 
L 318.424978 80.330243 
L 318.460855 80.359811 
L 318.496726 80.389385 
L 318.532592 80.418965 
L 318.568452 80.448553 
L 318.604306 80.478148 
L 318.640155 80.507749 
L 318.675998 80.537357 
L 318.711836 80.566972 
L 318.747668 80.596593 
L 318.783494 80.626222 
L 318.819315 80.655857 
L 318.85513 80.685499 
L 318.89094 80.715148 
L 318.926744 80.744804 
L 318.962542 80.774467 
L 318.998334 80.804136 
L 319.034121 80.833812 
L 319.069902 80.863495 
L 319.105678 80.893185 
z
" style="fill:#ffffff;stroke:#000000;stroke-linejoin:miter;"/>
   </g>
   <g id="patch_9">
    <path clip-path="url(#p188cfee265)" d="M 303.961542 93.531757 
L 303.596106 95.106205 
L 303.230671 96.680653 
L 303.230671 96.680653 
L 273.473598 89.773921 
L 243.716526 82.867188 
L 243.716526 82.867188 
L 244.081961 81.29274 
L 244.447397 79.718292 
L 244.447397 79.718292 
L 246.457292 71.058826 
L 248.467188 62.399361 
L 248.467188 62.399361 
L 278.224261 69.306093 
L 307.981333 76.212825 
L 307.981333 76.212825 
L 305.971438 84.872291 
z
" style="fill:#bfbfbf;stroke:#000000;stroke-linejoin:miter;"/>
   </g>
   <g id="patch_10">
    <path clip-path="url(#p188cfee265)" d="M 244.447397 79.718292 
L 243.008738 79.384373 
L 241.570079 79.050455 
L 241.570079 79.050455 
L 240.316677 78.269286 
L 239.063276 77.488116 
L 239.063276 77.488116 
L 243.765232 69.943738 
L 248.467188 62.399361 
L 248.467188 62.399361 
L 246.457292 71.058826 
z
" style="fill:#ffffff;stroke:#000000;stroke-linejoin:miter;"/>
   </g>
   <g id="patch_11">
    <path clip-path="url(#p188cfee265)" d="M 187.212826 45.172855 
L 186.357925 46.54456 
L 185.503024 47.916265 
L 185.503024 47.916265 
L 211.428249 64.073896 
L 237.353474 80.231526 
L 237.353474 80.231526 
L 238.208375 78.859821 
L 239.063276 77.488116 
L 239.063276 77.488116 
L 243.765232 69.943738 
L 248.467188 62.399361 
L 248.467188 62.399361 
L 222.541963 46.24173 
L 196.616738 30.0841 
L 196.616738 30.0841 
L 191.914782 37.628477 
z
" style="fill:#bfbfbf;stroke:#000000;stroke-linejoin:miter;"/>
   </g>
   <g id="patch_12">
    <path clip-path="url(#p188cfee265)" d="M 185.441124 25.527514 
L 185.441124 34.798087 
L 185.441124 44.06866 
L 185.441124 44.06866 
L 186.326975 44.620758 
L 187.212826 45.172855 
L 187.212826 45.172855 
L 191.914782 37.628477 
L 196.616738 30.0841 
L 196.616738 30.0841 
L 193.341321 28.04273 
L 190.065904 26.00136 
L 190.065904 26.00136 
L 190.019702 25.996186 
L 189.973499 25.991022 
L 189.927295 25.985866 
L 189.88109 25.980719 
L 189.834884 25.975581 
L 189.788678 25.970452 
L 189.74247 25.965331 
L 189.696261 25.960219 
L 189.650052 25.955116 
L 189.603841 25.950022 
L 189.557629 25.944937 
L 189.511417 25.93986 
L 189.465203 25.934792 
L 189.418989 25.929733 
L 189.372773 25.924683 
L 189.326557 25.919641 
L 189.280339 25.914608 
L 189.234121 25.909584 
L 189.187902 25.904569 
L 189.141681 25.899563 
L 189.09546 25.894565 
L 189.049238 25.889576 
L 189.003015 25.884596 
L 188.956791 25.879625 
L 188.910566 25.874662 
L 188.86434 25.869708 
L 188.818113 25.864763 
L 188.771885 25.859827 
L 188.725656 25.8549 
L 188.679427 25.849981 
L 188.633196 25.845071 
L 188.586965 25.84017 
L 188.540732 25.835278 
L 188.494499 25.830395 
L 188.448264 25.82552 
L 188.402029 25.820654 
L 188.355793 25.815797 
L 188.309556 25.810949 
L 188.263318 25.806109 
L 188.217079 25.801278 
L 188.170839 25.796456 
L 188.124598 25.791643 
L 188.078357 25.786839 
L 188.032114 25.782043 
L 187.98587 25.777256 
L 187.939626 25.772478 
L 187.893381 25.767709 
L 187.847134 25.762948 
L 187.800887 25.758197 
L 187.754639 25.753454 
L 187.70839 25.748719 
L 187.662141 25.743994 
L 187.61589 25.739278 
L 187.569638 25.73457 
L 187.523386 25.729871 
L 187.477132 25.725181 
L 187.430878 25.720499 
L 187.384623 25.715827 
L 187.338367 25.711163 
L 187.29211 25.706508 
L 187.245852 25.701861 
L 187.199593 25.697224 
L 187.153333 25.692595 
L 187.107073 25.687975 
L 187.060812 25.683364 
L 187.014549 25.678762 
L 186.968286 25.674168 
L 186.922022 25.669584 
L 186.875757 25.665008 
L 186.829492 25.660441 
L 186.783225 25.655882 
L 186.736958 25.651333 
L 186.690689 25.646792 
L 186.64442 25.64226 
L 186.59815 25.637737 
L 186.551879 25.633222 
L 186.505607 25.628717 
L 186.459335 25.62422 
L 186.413061 25.619732 
L 186.366787 25.615252 
L 186.320512 25.610782 
L 186.274236 25.60632 
L 186.227959 25.601867 
L 186.181681 25.597423 
L 186.135403 25.592988 
L 186.089123 25.588561 
L 186.042843 25.584144 
L 185.996562 25.579735 
L 185.95028 25.575335 
L 185.903997 25.570943 
L 185.857714 25.566561 
L 185.811429 25.562187 
L 185.765144 25.557822 
L 185.718858 25.553466 
L 185.672571 25.549119 
L 185.626283 25.54478 
L 185.579995 25.54045 
L 185.533706 25.536129 
L 185.487415 25.531817 
L 185.441124 25.527514 
z
" style="fill:#ffffff;stroke:#000000;stroke-linejoin:miter;"/>
   </g>
  </g>
 </g>
 <defs>
  <clipPath id="p188cfee265">
   <rect height="266.4" width="554.4" x="10.8" y="10.8"/>
  </clipPath>
 </defs>
</svg>
